name C:\Users\u0101727\Documents\MyRepositories\predictivesimulations\OpenSimModel\subject1\EMG\EMG_gait_14.mot
datacolumns 25
datarows 22
range 0.00100000 0.02200000
endheader
time	HamL_r	TA_r	PerL_r	GL_r	HamM_r	Sol_r	VL_r	VM_r	PerB_l	TA_l	PerL_l	GL_l	GM_l	Sol_l	VL_l	VM_l	AddL_l	RF_l	TFL_l	GluMed_l	HamL_l	HamM_l	GluMed_r	RF_r	
          0.00100000	          0.00100000	          0.00100000	          0.00390931	          0.00100000	          0.00100000	          0.00100000	          0.00478425	          0.00100000	          0.01194460	          0.00224192	          0.00726328	          0.00338126	          0.00100000	          0.00454270	          0.00150569	          0.00100000	          0.00299943	          0.00622150	          0.00100000	          0.00100000	          0.00100000	          0.00163662	          0.00100000	          0.00171821	
          0.00200000	          0.00100000	          0.00100000	          0.00410739	          0.00100000	          0.00100000	          0.00153020	          0.00510448	          0.00100000	          0.01304441	          0.00243995	          0.00749979	          0.00387572	          0.00100000	          0.00595440	          0.00191582	          0.00100000	          0.00312902	          0.00643916	          0.00100000	          0.00100000	          0.00100000	          0.00179264	          0.00100000	          0.00189794	
          0.00300000	          0.00100000	          0.00100000	          0.00431156	          0.00100000	          0.00100000	          0.00218420	          0.00543219	          0.00100000	          0.01416273	          0.00263929	          0.00774035	          0.00438384	          0.00118844	          0.00738414	          0.00232454	          0.00100000	          0.00325934	          0.00665459	          0.00100000	          0.00100000	          0.00100000	          0.00195094	          0.00100000	          0.00207837	
          0.00400000	          0.00100000	          0.00100000	          0.00452131	          0.00100000	          0.00100000	          0.00282951	          0.00576640	          0.00100000	          0.01529722	          0.00283920	          0.00798424	          0.00490445	          0.00168366	          0.00882614	          0.00273020	          0.00100000	          0.00338984	          0.00686685	          0.00100000	          0.00100000	          0.00100000	          0.00211095	          0.00100000	          0.00225876	
          0.00500000	          0.00124698	          0.00100000	          0.00473617	          0.00100000	          0.00100000	          0.00346374	          0.00610621	          0.00100000	          0.01644543	          0.00303902	          0.00823066	          0.00543648	          0.00218438	          0.01027643	          0.00313138	          0.00105082	          0.00351997	          0.00707492	          0.00100000	          0.00100000	          0.00100000	          0.00227223	          0.00100000	          0.00243849	
          0.00600000	          0.00149656	          0.00100000	          0.00495569	          0.00100000	          0.00100000	          0.00408506	          0.00645087	          0.00100000	          0.01760487	          0.00323814	          0.00847871	          0.00597898	          0.00268987	          0.01173265	          0.00352683	          0.00171987	          0.00364914	          0.00727775	          0.00172127	          0.00100000	          0.00110908	          0.00243442	          0.00100000	          0.00261702	
          0.00700000	          0.00174099	          0.00100000	          0.00517943	          0.00100000	          0.00100000	          0.00469188	          0.00679965	          0.00100000	          0.01877302	          0.00343600	          0.00872745	          0.00653124	          0.00319952	          0.01319340	          0.00391544	          0.00236728	          0.00377677	          0.00747422	          0.00268584	          0.00100000	          0.00138850	          0.00259719	          0.00100000	          0.00279389	
          0.00800000	          0.00197974	          0.00100000	          0.00540700	          0.00100000	          0.00100000	          0.00528280	          0.00715175	          0.00100000	          0.01994732	          0.00363202	          0.00897585	          0.00709265	          0.00371275	          0.01465768	          0.00429623	          0.00299112	          0.00390227	          0.00766314	          0.00362440	          0.00162343	          0.00166086	          0.00276024	          0.00100000	          0.00296862	
          0.00900000	          0.00221240	          0.00100000	          0.00563795	          0.00100000	          0.00100000	          0.00585654	          0.00750633	          0.00100000	          0.02112510	          0.00382568	          0.00922288	          0.00766267	          0.00422907	          0.01612468	          0.00466827	          0.00358975	          0.00402502	          0.00784329	          0.00453543	          0.00228048	          0.00192551	          0.00292329	          0.00100000	          0.00314073	
          0.01000000	          0.00243862	          0.00100000	          0.00587186	          0.00100000	          0.00100000	          0.00641198	          0.00786248	          0.00100000	          0.02230350	          0.00401644	          0.00946739	          0.00824066	          0.00474801	          0.01759377	          0.00503070	          0.00416174	          0.00414443	          0.00801347	          0.00541760	          0.00290965	          0.00218189	          0.00308611	          0.00100000	          0.00330974	
          0.01100000	          0.00265806	          0.00105009	          0.00610823	          0.00100000	          0.00100000	          0.00694818	          0.00821928	          0.00100000	          0.02347943	          0.00420380	          0.00970818	          0.00882596	          0.00526908	          0.01906432	          0.00538272	          0.00470583	          0.00425997	          0.00817246	          0.00626969	          0.00351041	          0.00242955	          0.00324855	          0.00100000	          0.00347520	
          0.01200000	          0.00287042	          0.00124811	          0.00634659	          0.00106032	          0.00100000	          0.00746437	          0.00857577	          0.00100000	          0.02464950	          0.00438733	          0.00994399	          0.00941778	          0.00579188	          0.02053556	          0.00572353	          0.00522093	          0.00437114	          0.00831907	          0.00709047	          0.00408242	          0.00266811	          0.00341054	          0.00114826	          0.00363666	
          0.01300000	          0.00307540	          0.00144008	          0.00658646	          0.00122718	          0.00100000	          0.00795996	          0.00893097	          0.00100000	          0.02581001	          0.00456659	          0.01017352	          0.01001528	          0.00631616	          0.02200654	          0.00605244	          0.00570624	          0.00447743	          0.00845220	          0.00787874	          0.00462533	          0.00289725	          0.00357209	          0.00133298	          0.00379371	
          0.01400000	          0.00327283	          0.00162596	          0.00682735	          0.00138689	          0.00100000	          0.00843447	          0.00928378	          0.00118909	          0.02695696	          0.00474117	          0.01039551	          0.01061748	          0.00684183	          0.02347612	          0.00636886	          0.00616128	          0.00457833	          0.00857100	          0.00863334	          0.00513880	          0.00311671	          0.00373327	          0.00151502	          0.00394592	
          0.01500000	          0.00346264	          0.00180579	          0.00706877	          0.00153928	          0.00100000	          0.00888744	          0.00963308	          0.00138621	          0.02808613	          0.00491070	          0.01060872	          0.01122333	          0.00736888	          0.02494306	          0.00667233	          0.00658596	          0.00467332	          0.00867499	          0.00935327	          0.00562247	          0.00332631	          0.00389423	          0.00169445	          0.00409295	
          0.01600000	          0.00364484	          0.00197962	          0.00731021	          0.00168421	          0.00128608	          0.00931850	          0.00997764	          0.00157326	          0.02919322	          0.00507483	          0.01081202	          0.01183170	          0.00789725	          0.02640596	          0.00696247	          0.00698045	          0.00476197	          0.00876400	          0.01003768	          0.00607603	          0.00352594	          0.00405516	          0.00187138	          0.00423448	
          0.01700000	          0.00381944	          0.00214751	          0.00755120	          0.00182155	          0.00250259	          0.00972737	          0.01031633	          0.00175037	          0.03027429	          0.00523317	          0.01100450	          0.01244143	          0.00842690	          0.02786319	          0.00723903	          0.00734519	          0.00484395	          0.00883804	          0.01068591	          0.00649923	          0.00371557	          0.00421622	          0.00204593	          0.00437030	
          0.01800000	          0.00398647	          0.00230953	          0.00779124	          0.00195123	          0.00364731	          0.01011380	          0.01064807	          0.00191771	          0.03132599	          0.00538539	          0.01118558	          0.01305146	          0.00895784	          0.02931282	          0.00750191	          0.00768079	          0.00491903	          0.00889718	          0.01129754	          0.00689197	          0.00389521	          0.00437758	          0.00221826	          0.00450022	
          0.01900000	          0.00414597	          0.00246574	          0.00802996	          0.00207318	          0.00472372	          0.01047758	          0.01097180	          0.00207546	          0.03234560	          0.00553124	          0.01135510	          0.01366088	          0.00949013	          0.03075269	          0.00775115	          0.00798797	          0.00498705	          0.00894148	          0.01187238	          0.00725429	          0.00406489	          0.00453943	          0.00238858	          0.00462408	
          0.02000000	          0.00429800	          0.00261623	          0.00826707	          0.00218735	          0.00573548	          0.01081856	          0.01128657	          0.00222381	          0.03333081	          0.00567060	          0.01151316	          0.01426886	          0.01002380	          0.03218043	          0.00798685	          0.00826757	          0.00504792	          0.00897107	          0.01241039	          0.00758637	          0.00422475	          0.00470201	          0.00255709	          0.00474173	
          0.02100000	          0.00444258	          0.00276107	          0.00850236	          0.00229367	          0.00668627	          0.01113665	          0.01159157	          0.00236302	          0.03427953	          0.00580342	          0.01165997	          0.01487474	          0.01055891	          0.03359359	          0.00820917	          0.00852058	          0.00510159	          0.00898624	          0.01291168	          0.00788853	          0.00437494	          0.00486555	          0.00272401	          0.00485317	
          0.02200000	          0.00457975	          0.00290032	          0.00873565	          0.00239211	          0.00757980	          0.01143191	          0.01188626	          0.00249339	          0.03518998	          0.00592967	          0.01179574	          0.01547804	          0.01109557	          0.03498979	          0.00841835	          0.00874824	          0.00514809	          0.00898749	          0.01337642	          0.00816136	          0.00451568	          0.00503028	          0.00288957	          0.00495852	
